<svg width="200" height="200" viewBox="0 0 200 200" fill="none"
    xmlns="http://www.w3.org/2000/svg">
    <rect width="200" height="200" rx="44" fill="#00A63E"/>
    <path d="M135.985 98.8041L164 115.103V147.702L135.985 164L107.97 147.702V115.103L135.985 98.8041ZM64.0185 98.8041L92.0337 115.103V147.702L64.0152 164L36 147.702V115.103L64.0152 98.8041H64.0185ZM135.985 110.408L117.939 120.905V141.896L135.985 152.394L154.028 141.896V120.905L135.985 110.408ZM64.0152 110.408L45.9723 120.905V141.896L64.0152 152.394L82.0581 141.896V120.905L64.0152 110.408ZM100.002 36L128.017 52.2989V84.8967L100.002 101.196L71.9864 84.8967V52.2989L100.002 36ZM99.9984 47.6029L81.9554 58.1005V79.0921L99.9984 89.5901L118.041 79.0921V58.1005L99.9984 47.6029Z" fill="white" fill-opacity="0.8"/>
</svg>
